<svg width="100" height="100" viewBox="0 0 100 100" fill="none" xmlns="http://www.w3.org/2000/svg">
<g filter="url(#filter0_i_51_504)">
<path d="M7.14307 0L14.9332 88.3482L50.0002 100L85.0672 88.3482L92.8574 0H7.14307ZM77.0315 17.8571L75.96 28.4152L50.2234 39.4196L50.1565 39.442H75.0449L72.1877 72.1652L50.2681 78.5714L28.2145 72.0536L26.7859 55.558H37.7011L38.4154 64.1071L50.1565 67.0759L62.3663 63.6384L63.1922 49.8884L26.0716 49.7768V49.7545L26.027 49.7768L25.2234 39.442L50.2457 29.0179L51.6966 28.4152H24.2636L22.969 17.8571H77.0315Z" fill="url(#paint0_linear_51_504)"/>
</g>
<defs>
<filter id="filter0_i_51_504" x="0" y="0" width="100" height="104" filterUnits="userSpaceOnUse" color-interpolation-filters="sRGB">
<feFlood flood-opacity="0" result="BackgroundImageFix"/>
<feBlend mode="normal" in="SourceGraphic" in2="BackgroundImageFix" result="shape"/>
<feColorMatrix in="SourceAlpha" type="matrix" values="0 0 0 0 0 0 0 0 0 0 0 0 0 0 0 0 0 0 127 0" result="hardAlpha"/>
<feOffset dy="4"/>
<feGaussianBlur stdDeviation="2"/>
<feComposite in2="hardAlpha" operator="arithmetic" k2="-1" k3="1"/>
<feColorMatrix type="matrix" values="0 0 0 0 0 0 0 0 0 0 0 0 0 0 0 0 0 0 0.25 0"/>
<feBlend mode="normal" in2="shape" result="effect1_innerShadow_51_504"/>
</filter>
<linearGradient id="paint0_linear_51_504" x1="149.023" y1="144.091" x2="-72.4563" y2="-10.524" gradientUnits="userSpaceOnUse">
<stop offset="0.264423" stop-color="#27A843"/>
<stop offset="0.426711" stop-color="#0D9C9C"/>
<stop offset="0.764423" stop-color="#9900FF"/>
</linearGradient>
</defs>
</svg>
