<svg width="100" height="100" viewBox="0 0 100 100" fill="none" xmlns="http://www.w3.org/2000/svg">
<g filter="url(#filter0_i_51_500)">
<path d="M49.9801 100C48.6506 100 47.3013 99.6428 46.1305 98.9682L33.8873 91.7254C32.0617 90.6935 32.9546 90.3363 33.5499 90.1379C35.9906 89.2847 36.4867 89.1061 39.0862 87.6178C39.364 87.4591 39.7212 87.5186 39.999 87.6972L49.4047 93.2731C49.742 93.4716 50.2182 93.4716 50.5357 93.2731L87.1862 72.1203C87.5235 71.9218 87.7418 71.525 87.7418 71.1281V28.8223C87.7418 28.4056 87.5235 28.0286 87.1664 27.8103L50.5357 6.67725C50.1984 6.47882 49.742 6.47882 49.4047 6.67725L12.7939 27.8301C12.4367 28.0286 12.2184 28.4254 12.2184 28.8421V71.1281C12.2184 71.525 12.4367 71.9218 12.7939 72.1004L22.8346 77.8946C28.2915 80.6132 31.6251 77.4184 31.6251 74.184V32.4338C31.6251 31.8385 32.1014 31.3821 32.6967 31.3821H37.34C37.9154 31.3821 38.4115 31.8385 38.4115 32.4338V74.2038C38.4115 81.4664 34.4429 85.6335 27.5573 85.6335C25.434 85.6335 23.7672 85.6335 19.1239 83.3317L9.51975 77.7954C7.13857 76.4262 5.67017 73.8665 5.67017 71.1082V28.8223C5.67017 26.0839 7.13857 23.5043 9.51975 22.1351L46.1305 0.98224C48.4522 -0.327413 51.5279 -0.327413 53.8297 0.98224L90.4802 22.155C92.8614 23.5242 94.3298 26.0839 94.3298 28.8421V71.1281C94.3298 73.8665 92.8614 76.4262 90.4802 77.8153L53.8297 98.9682C52.659 99.6428 51.3295 100 49.9801 100ZM79.5664 58.3094C79.5664 50.3919 74.2087 48.2885 62.9576 46.8003C51.5676 45.2922 50.4167 44.5183 50.4167 41.8593C50.4167 39.6567 51.389 36.7199 59.8224 36.7199C67.343 36.7199 70.121 38.3471 71.2719 43.4269C71.3711 43.9032 71.8077 44.2603 72.3038 44.2603H77.0661C77.3638 44.2603 77.6416 44.1413 77.84 43.923C78.0385 43.7047 78.1377 43.4071 78.1178 43.1094C77.3836 34.3586 71.5696 30.2907 59.8224 30.2907C49.365 30.2907 43.1342 34.6959 43.1342 42.0974C43.1342 50.1141 49.3451 52.3365 59.366 53.3287C71.3711 54.4995 72.3038 56.2655 72.3038 58.6269C72.3038 62.7146 69.0098 64.4608 61.2908 64.4608C51.5874 64.4608 49.4642 62.02 48.7498 57.1981C48.6705 56.6822 48.2339 56.3052 47.6981 56.3052H42.9556C42.3603 56.3052 41.9039 56.7814 41.9039 57.3569C41.9039 63.5281 45.2574 70.89 61.3106 70.89C72.8991 70.8701 79.5664 66.2863 79.5664 58.3094Z" fill="url(#paint0_linear_51_500)"/>
</g>
<defs>
<filter id="filter0_i_51_500" x="0" y="0" width="100" height="104" filterUnits="userSpaceOnUse" color-interpolation-filters="sRGB">
<feFlood flood-opacity="0" result="BackgroundImageFix"/>
<feBlend mode="normal" in="SourceGraphic" in2="BackgroundImageFix" result="shape"/>
<feColorMatrix in="SourceAlpha" type="matrix" values="0 0 0 0 0 0 0 0 0 0 0 0 0 0 0 0 0 0 127 0" result="hardAlpha"/>
<feOffset dy="4"/>
<feGaussianBlur stdDeviation="2"/>
<feComposite in2="hardAlpha" operator="arithmetic" k2="-1" k3="1"/>
<feColorMatrix type="matrix" values="0 0 0 0 0 0 0 0 0 0 0 0 0 0 0 0 0 0 0.25 0"/>
<feBlend mode="normal" in2="shape" result="effect1_innerShadow_51_500"/>
</filter>
<linearGradient id="paint0_linear_51_500" x1="152.426" y1="144.091" x2="-71.5346" y2="-17.6281" gradientUnits="userSpaceOnUse">
<stop offset="0.264423" stop-color="#27A843"/>
<stop offset="0.426711" stop-color="#0D9C9C"/>
<stop offset="0.764423" stop-color="#9900FF"/>
</linearGradient>
</defs>
</svg>
