<svg width="100" height="100" viewBox="0 0 100 100" fill="none" xmlns="http://www.w3.org/2000/svg">
<g filter="url(#filter0_i_51_502)">
<path d="M81.6797 34.6045C80.625 34.2529 79.5703 33.9209 78.5156 33.6084C78.6914 32.8857 78.8477 32.1631 79.0039 31.4404C81.4062 19.7998 79.8242 10.4443 74.4922 7.3584C69.3555 4.40918 60.9766 7.47559 52.5 14.8584C51.6602 15.5811 50.8398 16.3428 50.0586 17.1045C49.5312 16.5967 48.9844 16.0889 48.4375 15.6006C39.5508 7.70996 30.6445 4.38965 25.3125 7.49512C20.1953 10.4639 18.6719 19.2725 20.8203 30.2881C21.0352 31.3818 21.2695 32.4561 21.543 33.5498C20.293 33.9014 19.0625 34.292 17.9102 34.7021C7.48047 38.3154 0 44.0186 0 49.917C0 56.0107 7.96875 62.124 18.8086 65.835C19.6875 66.1279 20.5664 66.4209 21.4648 66.6748C21.1719 67.8467 20.918 68.999 20.6836 70.1904C18.6328 81.0303 20.2344 89.624 25.3516 92.5732C30.625 95.6201 39.4922 92.4951 48.125 84.9365C48.8086 84.331 49.4922 83.706 50.1758 83.042C51.0352 83.8818 51.9336 84.6826 52.832 85.4639C61.1914 92.6514 69.4531 95.5615 74.5508 92.6123C79.8242 89.5654 81.543 80.3271 79.3164 69.0771C79.1406 68.2178 78.9453 67.3389 78.7305 66.4404C79.3555 66.2646 79.9609 66.0693 80.5664 65.874C91.8359 62.1435 100 56.1084 100 49.917C100 43.999 92.3047 38.2568 81.6797 34.6045ZM55.2539 18.0225C62.5195 11.6943 69.2969 9.21387 72.3828 10.9912C75.6836 12.8857 76.9531 20.542 74.8828 30.6006C74.7461 31.2646 74.6094 31.9092 74.4336 32.5537C70.0977 31.5771 65.7031 30.874 61.2891 30.4834C58.75 26.8506 55.9766 23.374 52.9688 20.1123C53.7305 19.3896 54.4727 18.7061 55.2539 18.0225ZM32.6562 60.0537C33.6523 61.7529 34.668 63.4521 35.7422 65.1123C32.6953 64.7803 29.668 64.292 26.6797 63.6475C27.5391 60.835 28.6133 57.9248 29.8633 54.9561C30.7617 56.6748 31.6797 58.374 32.6562 60.0537ZM26.7383 36.5576C29.5508 35.9326 32.5391 35.4248 35.6445 35.0342C34.6094 36.6553 33.5938 38.3154 32.6367 39.9951C31.6797 41.6553 30.7422 43.3545 29.8633 45.0732C28.6328 42.1631 27.5977 39.3115 26.7383 36.5576ZM32.0898 50.0146C33.3789 47.3193 34.7852 44.6826 36.2695 42.085C37.7539 39.4873 39.3555 36.9678 41.0352 34.4873C43.9648 34.2725 46.9531 34.1553 50 34.1553C53.0469 34.1553 56.0547 34.2725 58.9648 34.4873C60.625 36.9482 62.207 39.4678 63.7109 42.0459C65.2148 44.624 66.6211 47.2607 67.9492 49.9365C66.6406 52.6318 65.2344 55.2881 63.7305 57.9053C62.2461 60.5029 60.6641 63.0225 59.0039 65.5225C56.0938 65.7373 53.0664 65.835 50 65.835C46.9336 65.835 43.9648 65.7373 41.0938 65.5615C39.3945 63.0811 37.793 60.542 36.2891 57.9443C34.7852 55.3467 33.3984 52.71 32.0898 50.0146ZM67.3633 60.0146C68.3594 58.2959 69.2969 56.5576 70.2148 54.7998C71.4648 57.6318 72.5586 60.5029 73.5156 63.4521C70.4883 64.1357 67.4219 64.6631 64.3359 65.0146C65.3906 63.374 66.3867 61.6943 67.3633 60.0146ZM70.1758 45.0732C69.2578 43.3545 68.3203 41.6357 67.3438 39.9561C66.3867 38.2959 65.3906 36.6553 64.3555 35.0342C67.5 35.4248 70.5078 35.9521 73.3203 36.5967C72.4219 39.4873 71.3672 42.2998 70.1758 45.0732ZM50.0391 23.1006C52.0898 25.3271 54.0234 27.6709 55.8203 30.0928C51.9531 29.917 48.0664 29.917 44.1992 30.0928C46.1133 27.5732 48.0859 25.2295 50.0391 23.1006ZM27.3828 11.1279C30.6641 9.21387 37.9492 11.9482 45.625 18.7451C46.1133 19.1748 46.6016 19.6436 47.1094 20.1123C44.082 23.374 41.2891 26.8506 38.7305 30.4834C34.3164 30.874 29.9414 31.5576 25.6055 32.5146C25.3516 31.5186 25.1367 30.5029 24.9219 29.4873C23.0859 20.0342 24.2969 12.9053 27.3828 11.1279ZM22.5977 62.6123C21.7773 62.3779 20.9766 62.124 20.1758 61.8506C16.0156 60.542 11.2891 58.4717 7.87109 55.7568C5.89844 54.3896 4.57031 52.2803 4.19922 49.917C4.19922 46.3428 10.3711 41.7725 19.2773 38.667C20.3906 38.2764 21.5234 37.9248 22.6562 37.5928C23.9844 41.8311 25.5859 45.9912 27.4414 50.0146C25.5664 54.0967 23.9453 58.3154 22.5977 62.6123ZM45.3711 81.7529C42.1484 84.7021 38.418 87.0459 34.3555 88.6475C32.1875 89.6826 29.6875 89.7803 27.4609 88.9014C24.3555 87.1045 23.0664 80.21 24.8242 70.9326C25.0391 69.8389 25.2734 68.7451 25.5469 67.6709C29.9219 68.6084 34.3359 69.2529 38.8086 69.5849C41.3867 73.2373 44.2188 76.7334 47.2461 80.0146C46.6211 80.6201 45.9961 81.206 45.3711 81.7529ZM50.1562 77.0068C48.1641 74.8584 46.1719 72.4756 44.2383 69.917C46.1133 69.9951 48.0469 70.0342 50 70.0342C52.0117 70.0342 53.9844 69.9951 55.9375 69.8975C54.1406 72.3779 52.207 74.7412 50.1562 77.0068ZM75.6836 82.8662C75.5078 85.249 74.3359 87.4756 72.4609 88.9795C69.3555 90.7764 62.7344 88.4326 55.5859 82.2998C54.7656 81.5967 53.9453 80.835 53.1055 80.0537C56.0938 76.7529 58.8477 73.2568 61.3477 69.5849C65.8203 69.2139 70.2734 68.5303 74.668 67.5342C74.8633 68.335 75.0391 69.1357 75.1953 69.917C76.1523 74.1357 76.3086 78.5303 75.6836 82.8662ZM79.2383 61.8701C78.6914 62.0459 78.1445 62.2217 77.5781 62.3779C76.2109 58.1201 74.5312 53.96 72.5977 49.917C74.4727 45.9326 76.0547 41.8311 77.3828 37.6318C78.3984 37.9248 79.375 38.2373 80.3125 38.5498C89.4141 41.6748 95.8008 46.3232 95.8008 49.8779C95.8008 53.7061 88.9844 58.6475 79.2383 61.8701ZM50 58.9404C54.9414 58.9404 58.9453 54.9365 58.9453 49.9951C58.9453 45.0537 54.9414 41.0498 50 41.0498C45.0586 41.0498 41.0547 45.0537 41.0547 49.9951C41.0547 54.9365 45.0586 58.9404 50 58.9404Z" fill="url(#paint0_linear_51_502)"/>
</g>
<defs>
<filter id="filter0_i_51_502" x="0" y="0" width="100" height="104" filterUnits="userSpaceOnUse" color-interpolation-filters="sRGB">
<feFlood flood-opacity="0" result="BackgroundImageFix"/>
<feBlend mode="normal" in="SourceGraphic" in2="BackgroundImageFix" result="shape"/>
<feColorMatrix in="SourceAlpha" type="matrix" values="0 0 0 0 0 0 0 0 0 0 0 0 0 0 0 0 0 0 127 0" result="hardAlpha"/>
<feOffset dy="4"/>
<feGaussianBlur stdDeviation="2"/>
<feComposite in2="hardAlpha" operator="arithmetic" k2="-1" k3="1"/>
<feColorMatrix type="matrix" values="0 0 0 0 0 0 0 0 0 0 0 0 0 0 0 0 0 0 0.25 0"/>
<feBlend mode="normal" in2="shape" result="effect1_innerShadow_51_502"/>
</filter>
<linearGradient id="paint0_linear_51_502" x1="165.527" y1="132.334" x2="-40.399" y2="-59.332" gradientUnits="userSpaceOnUse">
<stop offset="0.264423" stop-color="#27A843"/>
<stop offset="0.426711" stop-color="#0D9C9C"/>
<stop offset="0.764423" stop-color="#9900FF"/>
</linearGradient>
</defs>
</svg>
